<svg width="133" height="109" viewBox="0 0 133 109" fill="none" xmlns="http://www.w3.org/2000/svg">
<rect x="49.7234" y="0.837891" width="33.1887" height="38.5195" fill="#FFBBBB"/>
<path d="M0.135345 60.7385C0.135345 35.0371 27.3646 18.4708 50.1895 30.2856V30.2856C60.0124 35.3702 71.7462 35.3731 81.5987 30.3461V30.3461C104.792 18.5126 132.498 35.258 132.498 61.2954V108.163H0.135345V60.7385Z" fill="#232432"/>
<rect x="87.576" y="55.0273" width="17.8406" height="6.16443" rx="0.964457" fill="#FFBB00"/>
<path d="M23.4528 35.5105C23.4528 29.9332 27.9741 25.4119 33.5514 25.4119V25.4119C34.9458 25.4119 36.0761 26.5422 36.0761 27.9365V108.163H23.4528V35.5105Z" fill="#2F3D84"/>
<path d="M109.183 35.5105C109.183 29.9332 104.662 25.4119 99.0844 25.4119V25.4119C97.6901 25.4119 96.5598 26.5422 96.5598 27.9365V108.163H109.183V35.5105Z" fill="#2F3D84"/>
<path d="M51.8562 42.1807V42.1807C60.9341 46.8378 71.6992 46.8378 80.777 42.1807V42.1807V108.163H51.8562V42.1807Z" fill="#ECECEC"/>
<path d="M66.3476 57.8618L60.2661 51.8687L66.3476 45.8762L72.4291 51.8687L66.3476 57.8618Z" fill="#232432"/>
<path fill-rule="evenodd" clip-rule="evenodd" d="M59.4008 61.8593L59.4005 61.859L66.3476 55.0273L73.2947 61.859L73.2945 61.8593H73.2949V108.164H59.4007V61.8593H59.4008Z" fill="#232432"/>
<path d="M51.8562 28.7749V28.7749C60.4121 35.2415 72.2212 35.2415 80.777 28.7749V28.7749V45.8763H51.8562V28.7749Z" fill="#BBBBBB"/>
<path d="M47.7317 23.1596C48.8317 22.3888 50.3483 22.6556 51.1191 23.7556L65.8236 44.7395C66.5944 45.8395 66.3275 47.3561 65.2275 48.1269L61.5397 50.7112C58.2397 53.0236 53.69 52.2231 51.3776 48.9231L39.4645 31.9226C38.6936 30.8226 38.9605 29.306 40.0605 28.5352L47.7317 23.1596Z" fill="white"/>
<path d="M84.9041 23.1596C83.8042 22.3888 82.2876 22.6556 81.5168 23.7556L66.8123 44.7395C66.0415 45.8395 66.3083 47.3561 67.4083 48.1269L71.0962 50.7112C74.3961 53.0236 78.9459 52.2231 81.2583 48.9231L93.1714 31.9226C93.9422 30.8226 93.6754 29.306 92.5754 28.5352L84.9041 23.1596Z" fill="white"/>
</svg>
