<svg width="35" height="54" viewBox="0 0 35 54" fill="none" xmlns="http://www.w3.org/2000/svg">
<path fill-rule="evenodd" clip-rule="evenodd" d="M19.0512 1.88027C18.9361 1.03305 18.2356 0.38694 17.3818 0.340544V0.340544C16.5281 0.294149 15.7617 0.860546 15.5555 1.6903L13.1809 11.2436C11.8414 16.6325 6.62638 20.2903 3.26173 24.7076C1.74253 26.7021 0.840515 29.1921 0.840515 31.8928C0.840515 34.8819 1.94547 37.6129 3.7692 39.6997C3.95004 39.9066 4.0508 40.1719 4.0508 40.4468V40.4468C4.0508 47.9045 9.98567 53.9502 17.3067 53.9502C24.6277 53.9502 30.5626 47.9045 30.5626 40.4468V40.4468C30.5626 37.4544 31.7774 34.298 33.2993 31.7215C34.1573 30.2689 34.6496 28.5746 34.6496 26.7653C34.6496 21.3751 30.2801 17.0056 24.8899 17.0056V17.0056C22.976 17.0056 20.953 15.8773 20.6953 13.9808L19.0512 1.88027ZM17.8446 20.0114C18.1859 19.6554 18.373 19.1714 18.3066 18.6827L18.2459 18.236C17.9688 16.1969 15.08 16.0399 14.5836 18.037L14.5255 18.2708C14.2844 19.2409 14.9571 20.1934 15.9196 20.4632C15.9626 20.4753 16.0056 20.4876 16.0484 20.5001C16.6873 20.6871 17.3839 20.4918 17.8446 20.0114V20.0114Z" fill="white"/>
</svg>
