<svg width="106" height="37" viewBox="0 0 106 37" fill="none" xmlns="http://www.w3.org/2000/svg">
<path fill-rule="evenodd" clip-rule="evenodd" d="M89.6873 36.7223L90.3186 36.7223C90.3222 36.7223 90.3251 36.7194 90.3251 36.7158V36.7158C90.3251 36.7123 90.3279 36.7094 90.3314 36.7093C92.2037 36.6335 94.0498 36.228 95.7841 35.5096C97.717 34.709 99.4733 33.5354 100.953 32.056C102.432 30.5766 103.606 28.8203 104.406 26.8874C105.207 24.9545 105.619 22.8828 105.619 20.7906C105.619 18.6984 105.207 16.6267 104.406 14.6938C103.606 12.7609 102.432 11.0046 100.953 9.52518C99.4733 8.04578 97.717 6.87226 95.7841 6.07162C94.0498 5.35323 92.2037 4.94766 90.3314 4.87191C90.3279 4.87177 90.3251 4.8689 90.3251 4.8654V4.8654C90.3251 4.8618 90.3222 4.85889 90.3186 4.85889H89.692C89.6904 4.85889 89.6889 4.85889 89.6873 4.85889C89.6873 4.85889 89.6873 4.85889 89.6873 4.85889V4.85889C89.6873 4.85889 89.6873 4.85889 89.6873 4.85889H84.5165C81.6607 4.85889 79.3457 7.17394 79.3457 10.0297V26.9942C79.3457 32.3669 83.7011 36.7223 89.0738 36.7223L89.6873 36.7223Z" fill="#FFD6D4"/>
<path fill-rule="evenodd" clip-rule="evenodd" d="M16.1442 4.859C16.1442 4.85907 16.1443 4.85912 16.1443 4.85912H21.3146C24.1701 4.85912 26.4849 7.17397 26.4849 10.0295V31.2328C26.4849 34.2647 24.0271 36.7226 20.9952 36.7226H15.5121C15.5084 36.7226 15.5054 36.7196 15.5054 36.7159V36.7159C15.5054 36.7123 15.5026 36.7094 15.4991 36.7093C13.6271 36.6334 11.7814 36.2278 10.0474 35.5096C8.11448 34.709 6.35818 33.5354 4.87879 32.056C3.39939 30.5766 2.22587 28.8203 1.42522 26.8874C0.62458 24.9545 0.212494 22.8828 0.212494 20.7906C0.212494 18.6984 0.62458 16.6267 1.42522 14.6938C2.22587 12.7609 3.39939 11.0046 4.87879 9.52518C6.35819 8.04578 8.11449 6.87226 10.0474 6.07162C11.7815 5.35334 13.6272 4.94779 15.4993 4.87194C15.5027 4.87181 15.5054 4.86898 15.5054 4.86554V4.86554C15.5054 4.86199 15.5083 4.85912 15.5119 4.85912H16.0575C16.0863 4.85897 16.1152 4.85889 16.1441 4.85889C16.1442 4.85889 16.1442 4.85894 16.1442 4.859V4.859Z" fill="#FFD6D4"/>
<rect x="81.5617" y="0.861816" width="9.87654" height="19.6277" rx="4.93827" transform="rotate(27.461 81.5617 0.861816)" fill="#FFBBBB"/>
<rect width="9.87654" height="19.6277" rx="4.93827" transform="matrix(-0.887325 0.461144 0.461144 0.887325 24.2684 0.861816)" fill="#FFBBBB"/>
</svg>
