<svg width="117" height="131" viewBox="0 0 117 131" fill="none" xmlns="http://www.w3.org/2000/svg">
<circle cx="101.483" cy="88.5048" r="15.1088" fill="#FFD6D4"/>
<circle cx="15.1088" cy="15.1088" r="15.1088" transform="matrix(-1 0 0 1 30.5634 73.396)" fill="#FFD6D4"/>
<path d="M97.7222 89.8564H106.705" stroke="#FFBBBB" stroke-width="2.43203" stroke-linecap="round" stroke-linejoin="round"/>
<path d="M19.215 89.8562H10.2327" stroke="#FFBBBB" stroke-width="2.43203" stroke-linecap="round" stroke-linejoin="round"/>
<circle cx="58.3169" cy="87.215" r="43.1674" fill="#FFD6D4"/>
<circle cx="79.5763" cy="89.892" r="6.79853" fill="#FFBBBB"/>
<circle cx="36.0368" cy="89.892" r="6.79853" fill="#FFBBBB"/>
<rect x="54.5515" y="83.0935" width="2.26504" height="4.64115" rx="1.13252" fill="#232323"/>
<rect x="59.817" y="83.0935" width="2.26504" height="4.64115" rx="1.13252" fill="#232323"/>
<path d="M50.8731 88.5049V88.5049C55.5199 91.0136 61.1176 91.0136 65.7644 88.5049V88.5049" stroke="#EE6A64" stroke-width="1.21602" stroke-linecap="round" stroke-linejoin="round"/>
<path d="M106.306 80.3243C106.306 73.721 105.064 67.1824 102.653 61.0818C100.241 54.9812 96.7062 49.438 92.2501 44.7688C87.7939 40.0996 82.5037 36.3958 76.6814 33.8688C70.8591 31.3419 64.6189 30.0413 58.3169 30.0413C52.0149 30.0413 45.7747 31.3419 39.9524 33.8688C34.1302 36.3958 28.8399 40.0996 24.3838 44.7688C19.9276 49.438 16.3928 54.9812 13.9811 61.0818C11.5694 67.1824 10.3282 73.721 10.3282 80.3243L22.3254 80.3243H29.4915L31.3233 69.0248L32.6723 80.3243H58.3169L84.0045 80.3243L85.3106 69.0248L87.5144 80.3243H94.3085H106.306Z" fill="#232323"/>
<ellipse cx="58.3165" cy="22.3724" rx="26.9295" ry="21.6751" fill="#232323"/>
</svg>
