<svg width="117" height="130" viewBox="0 0 117 130" fill="none" xmlns="http://www.w3.org/2000/svg">
<ellipse cx="57.9648" cy="76.5219" rx="50.2215" ry="52.1382" fill="#232323"/>
<circle cx="101.131" cy="87.6991" r="15.1088" fill="#FFD6D4"/>
<circle cx="15.1088" cy="15.1088" r="15.1088" transform="matrix(-1 0 0 1 30.212 72.5903)" fill="#FFD6D4"/>
<path d="M97.3707 89.051H106.353" stroke="#FFBBBB" stroke-width="2.43203" stroke-linecap="round" stroke-linejoin="round"/>
<path d="M18.8634 89.051H9.88103" stroke="#FFBBBB" stroke-width="2.43203" stroke-linecap="round" stroke-linejoin="round"/>
<circle cx="57.9654" cy="86.4096" r="43.1674" fill="#FFD6D4"/>
<path d="M100.319 59.8257C101.217 62.0984 101.945 64.4351 102.498 66.8143C103.923 72.9519 98.6845 78.1248 92.3835 78.1248L77.0916 78.1248C70.0825 78.1248 70.9321 55.5078 70.9321 55.5078C70.9321 55.5078 71.0383 51.4347 67.4872 51.4347C53.6348 51.6097 68.7019 78.1248 55.3208 78.1248H30.7441H23.9293C17.6283 78.1248 12.3893 72.9519 13.8153 66.8143C14.3681 64.4351 15.0957 62.0984 15.9941 59.8257C18.2876 54.0241 21.6491 48.7527 25.8868 44.3124C30.1245 39.8721 35.1554 36.3499 40.6922 33.9468C46.2291 31.5437 52.1634 30.3069 58.1564 30.3069C64.1494 30.3069 70.0838 31.5437 75.6206 33.9468C81.1574 36.3499 86.1883 39.8721 90.426 44.3124C94.6637 48.7527 98.0252 54.0241 100.319 59.8257Z" fill="#232323"/>
<circle cx="79.2249" cy="89.0864" r="6.79853" fill="#FFBBBB"/>
<circle cx="35.6854" cy="89.0864" r="6.79853" fill="#FFBBBB"/>
<rect x="54.2001" y="82.2878" width="2.26504" height="4.64115" rx="1.13252" fill="#232323"/>
<rect x="59.4656" y="82.2878" width="2.26504" height="4.64115" rx="1.13252" fill="#232323"/>
<path d="M65.4124 91.7192V91.7192C60.7656 89.2105 55.1679 89.2105 50.5211 91.7192V91.7192" stroke="#EE6A64" stroke-width="1.21602" stroke-linecap="round" stroke-linejoin="round"/>
<path fill-rule="evenodd" clip-rule="evenodd" d="M104.85 107.033C106.903 107.033 108.567 104.675 108.567 101.766C108.567 98.8571 106.903 96.499 104.85 96.499C102.796 96.499 101.132 98.8571 101.132 101.766C101.132 104.675 102.796 107.033 104.85 107.033ZM104.849 104.333C105.85 104.333 106.662 103.184 106.662 101.766C106.662 100.348 105.85 99.1984 104.849 99.1984C103.848 99.1984 103.037 100.348 103.037 101.766C103.037 103.184 103.848 104.333 104.849 104.333Z" fill="#424242"/>
<path fill-rule="evenodd" clip-rule="evenodd" d="M104.85 107.033C106.903 107.033 108.567 104.675 108.567 101.766C108.567 98.8571 106.903 96.499 104.85 96.499C102.796 96.499 101.132 98.8571 101.132 101.766C101.132 104.675 102.796 107.033 104.85 107.033ZM104.849 104.333C105.85 104.333 106.662 103.184 106.662 101.766C106.662 100.348 105.85 99.1984 104.849 99.1984C103.848 99.1984 103.037 100.348 103.037 101.766C103.037 103.184 103.848 104.333 104.849 104.333Z" fill="#424242"/>
<path d="M14.7985 100.186C14.7985 99.1976 14.0421 98.396 13.109 98.396C12.176 98.396 11.4196 99.1976 11.4196 100.186C11.4196 101.175 12.176 101.977 13.109 101.977C14.0421 101.977 14.7985 101.175 14.7985 100.186Z" fill="#424242"/>
<path d="M14.7985 100.186C14.7985 99.1976 14.0421 98.396 13.109 98.396C12.176 98.396 11.4196 99.1976 11.4196 100.186C11.4196 101.175 12.176 101.977 13.109 101.977C14.0421 101.977 14.7985 101.175 14.7985 100.186Z" fill="#424242"/>
<path d="M6.05351 94.6785C6.05351 94.0122 5.54378 93.472 4.915 93.472C4.28622 93.472 3.77649 94.0122 3.77649 94.6785C3.77649 95.3448 4.28622 95.885 4.915 95.885C5.54378 95.885 6.05351 95.3448 6.05351 94.6785Z" fill="#424242"/>
<path d="M6.05351 94.6785C6.05351 94.0122 5.54378 93.472 4.915 93.472C4.28622 93.472 3.77649 94.0122 3.77649 94.6785C3.77649 95.3448 4.28622 95.885 4.915 95.885C5.54378 95.885 6.05351 95.3448 6.05351 94.6785Z" fill="#424242"/>
<path d="M4.94234 94.7241C4.65776 98.9402 5.04626 107.372 8.87694 107.372C12.7076 107.372 13.1428 102.963 12.8816 100.759" stroke="#424242" stroke-width="0.964457" stroke-linecap="round" stroke-linejoin="round"/>
<ellipse cx="57.7645" cy="21.9473" rx="26.9295" ry="21.6751" fill="#232323"/>
</svg>
