<svg width="25" height="24" viewBox="0 0 25 24" fill="none" xmlns="http://www.w3.org/2000/svg">
<path d="M13.4589 2.764C13.1075 2.49075 12.9319 2.35412 12.7379 2.3016C12.5668 2.25526 12.3864 2.25526 12.2152 2.3016C12.0212 2.35412 11.8456 2.49075 11.4943 2.764L4.71195 8.03912C4.25858 8.39175 4.0319 8.56806 3.86859 8.78886C3.72393 8.98444 3.61616 9.20478 3.55059 9.43905C3.47656 9.70352 3.47656 9.9907 3.47656 10.5651V17.8C3.47656 18.9201 3.47656 19.4801 3.69455 19.908C3.8863 20.2843 4.19226 20.5903 4.56858 20.782C4.9964 21 5.55646 21 6.67656 21H8.67656C8.95659 21 9.0966 21 9.20356 20.9455C9.29764 20.8976 9.37413 20.8211 9.42207 20.727C9.47656 20.62 9.47656 20.48 9.47656 20.2V13.6C9.47656 13.0399 9.47656 12.7599 9.58556 12.546C9.68143 12.3578 9.83441 12.2049 10.0226 12.109C10.2365 12 10.5165 12 11.0766 12H13.8766C14.4366 12 14.7166 12 14.9306 12.109C15.1187 12.2049 15.2717 12.3578 15.3676 12.546C15.4766 12.7599 15.4766 13.0399 15.4766 13.6V20.2C15.4766 20.48 15.4766 20.62 15.5311 20.727C15.579 20.8211 15.6555 20.8976 15.7496 20.9455C15.8565 21 15.9965 21 16.2766 21H18.2766C19.3967 21 19.9567 21 20.3845 20.782C20.7609 20.5903 21.0668 20.2843 21.2586 19.908C21.4766 19.4801 21.4766 18.9201 21.4766 17.8V10.5651C21.4766 9.9907 21.4766 9.70352 21.4025 9.43905C21.337 9.20478 21.2292 8.98444 21.0845 8.78886C20.9212 8.56806 20.6945 8.39175 20.2412 8.03913L13.4589 2.764Z" fill="#435FD0" stroke="#435FD0" stroke-width="2" stroke-linecap="round" stroke-linejoin="round"/>
</svg>
