<svg width="25" height="24" viewBox="0 0 25 24" fill="none" xmlns="http://www.w3.org/2000/svg">
<path d="M13.7557 2.76403C13.4044 2.49078 13.2288 2.35415 13.0348 2.30163C12.8636 2.25529 12.6832 2.25529 12.5121 2.30163C12.3181 2.35415 12.1425 2.49078 11.7911 2.76403L5.00883 8.03916C4.55546 8.39178 4.32877 8.56809 4.16546 8.78889C4.0208 8.98447 3.91304 9.20481 3.84746 9.43908C3.77344 9.70355 3.77344 9.99073 3.77344 10.5651V17.8C3.77344 18.9201 3.77344 19.4802 3.99142 19.908C4.18317 20.2843 4.48913 20.5903 4.86546 20.782C5.29328 21 5.85333 21 6.97344 21H8.97344C9.25346 21 9.39348 21 9.50043 20.9455C9.59451 20.8976 9.671 20.8211 9.71894 20.727C9.77344 20.6201 9.77344 20.48 9.77344 20.2V13.6C9.77344 13.04 9.77344 12.7599 9.88243 12.546C9.9783 12.3579 10.1313 12.2049 10.3194 12.109C10.5334 12 10.8134 12 11.3734 12H14.1734C14.7335 12 15.0135 12 15.2274 12.109C15.4156 12.2049 15.5686 12.3579 15.6644 12.546C15.7734 12.7599 15.7734 13.04 15.7734 13.6V20.2C15.7734 20.48 15.7734 20.6201 15.8279 20.727C15.8759 20.8211 15.9524 20.8976 16.0464 20.9455C16.1534 21 16.2934 21 16.5734 21H18.5734C19.6935 21 20.2536 21 20.6814 20.782C21.0577 20.5903 21.3637 20.2843 21.5555 19.908C21.7734 19.4802 21.7734 18.9201 21.7734 17.8V10.5651C21.7734 9.99073 21.7734 9.70355 21.6994 9.43908C21.6338 9.20481 21.5261 8.98447 21.3814 8.78889C21.2181 8.56809 20.9914 8.39178 20.538 8.03916L13.7557 2.76403Z" stroke="#CBCBCB" stroke-width="2" stroke-linecap="round" stroke-linejoin="round"/>
</svg>
