<svg width="92" height="21" viewBox="0 0 92 21" fill="none" xmlns="http://www.w3.org/2000/svg">
<path d="M11.838 5.362C11.1793 5.362 10.5813 5.518 10.044 5.83C9.524 6.12467 9.082 6.52333 8.718 7.026C8.354 7.52867 8.05933 8.08333 7.834 8.69C7.60867 9.27933 7.43533 9.89467 7.314 10.536C7.21 11.16 7.158 11.7493 7.158 12.304C7.158 13.3787 7.37467 14.254 7.808 14.93C8.25867 15.5887 9.004 15.918 10.044 15.918C11.3093 15.918 12.3233 15.4327 13.086 14.462C13.8487 13.4913 14.3773 12.1827 14.672 10.536C14.776 10.016 14.828 9.50467 14.828 9.002C14.828 7.92733 14.5853 7.052 14.1 6.376C13.632 5.7 12.878 5.362 11.838 5.362ZM12.696 0.785999C14.1 0.785999 15.3307 0.993999 16.388 1.41C17.4453 1.80867 18.312 2.36333 18.988 3.074C19.664 3.78467 20.1667 4.608 20.496 5.544C20.8253 6.48 20.99 7.48533 20.99 8.56C20.99 9.20133 20.9293 9.86 20.808 10.536C20.5307 12.0787 20.0367 13.474 19.326 14.722C18.6153 15.97 17.74 17.0273 16.7 17.894C15.66 18.7433 14.4987 19.3933 13.216 19.844C11.9507 20.2773 10.6247 20.494 9.238 20.494C6.65533 20.494 4.62733 19.8267 3.154 18.492C1.698 17.1573 0.97 15.2767 0.97 12.85C0.97 12.0873 1.048 11.2987 1.204 10.484C1.44667 9.028 1.906 7.702 2.582 6.506C3.27533 5.31 4.13333 4.28733 5.156 3.438C6.17867 2.57133 7.33133 1.91267 8.614 1.462C9.89667 1.01133 11.2573 0.785999 12.696 0.785999ZM24.1882 13.136L24.2142 5.908L25.0202 1.28H30.5582L29.7522 5.908L27.1262 13.136H24.1882ZM27.1002 20H21.7442L22.6282 14.956H27.9842L27.1002 20ZM46.3664 11.576H40.8804C40.8804 11.5587 40.8891 11.498 40.9064 11.394C40.9064 11.3247 40.9064 11.2727 40.9064 11.238C40.9064 10.8047 40.7937 10.4493 40.5684 10.172C40.2911 9.808 39.8491 9.626 39.2424 9.626C38.7744 9.626 38.3584 9.73867 37.9944 9.964C37.6304 10.1893 37.3357 10.484 37.1104 10.848C36.8851 11.1947 36.7031 11.5847 36.5644 12.018C36.4257 12.4513 36.3131 12.8933 36.2264 13.344C36.1571 13.76 36.1224 14.1327 36.1224 14.462C36.1224 15.19 36.2784 15.7533 36.5904 16.152C36.9024 16.5507 37.3704 16.75 37.9944 16.75C38.6531 16.75 39.1817 16.568 39.5804 16.204C39.9791 15.8227 40.2737 15.3287 40.4644 14.722H45.9244C45.6297 15.7273 45.1964 16.594 44.6244 17.322C44.0697 18.05 43.3937 18.648 42.5964 19.116C41.8684 19.5493 41.0537 19.87 40.1524 20.078C39.2684 20.286 38.3324 20.39 37.3444 20.39C35.3511 20.39 33.7391 19.9047 32.5084 18.934C31.2951 17.946 30.6884 16.5593 30.6884 14.774C30.6884 14.306 30.7317 13.8207 30.8184 13.318C31.0264 12.174 31.3991 11.1513 31.9364 10.25C32.4737 9.33133 33.1497 8.56 33.9644 7.936C34.7791 7.29467 35.6891 6.80933 36.6944 6.48C37.6997 6.15067 38.7657 5.986 39.8924 5.986C40.7937 5.986 41.6344 6.08133 42.4144 6.272C43.1944 6.46267 43.8791 6.766 44.4684 7.182C45.0751 7.58067 45.5431 8.10067 45.8724 8.742C46.2191 9.38333 46.3924 10.146 46.3924 11.03C46.3924 11.082 46.3924 11.1687 46.3924 11.29C46.3751 11.446 46.3664 11.5413 46.3664 11.576ZM47.4062 20L50.7082 1.28H56.1162L54.9202 8.092C55.6135 7.38133 56.3155 6.85267 57.0262 6.506C57.7369 6.15933 58.5342 5.986 59.4182 5.986C60.9089 5.986 62.0182 6.34133 62.7462 7.052C63.4742 7.74533 63.8382 8.768 63.8382 10.12C63.8382 10.64 63.7775 11.212 63.6562 11.836L62.2262 20H56.8182L58.0922 12.798C58.1442 12.4687 58.1702 12.1653 58.1702 11.888C58.1702 11.368 58.0489 10.9693 57.8062 10.692C57.5809 10.3973 57.1909 10.25 56.6362 10.25C55.8562 10.25 55.2669 10.484 54.8682 10.952C54.4869 11.42 54.2095 12.122 54.0362 13.058L52.8142 20H47.4062ZM81.96 6.376L79.568 20H74.55L74.914 17.998C74.082 18.9167 73.2673 19.5493 72.47 19.896C71.69 20.2253 70.7193 20.39 69.558 20.39C68.2753 20.39 67.2787 20.052 66.568 19.376C65.8747 18.7 65.528 17.686 65.528 16.334C65.528 15.814 65.58 15.2593 65.684 14.67L67.14 6.376H72.548L71.274 13.734C71.2047 14.098 71.17 14.41 71.17 14.67C71.17 15.2247 71.3 15.6233 71.56 15.866C71.82 16.0913 72.2273 16.204 72.782 16.204C73.5273 16.204 74.0993 15.9353 74.498 15.398C74.914 14.8433 75.2173 14.02 75.408 12.928L76.552 6.376H81.96ZM87.8618 20H82.4538L85.7558 1.28H91.1638L87.8618 20Z" fill="#435FD0"/>
</svg>
