<svg width="25" height="24" viewBox="0 0 25 24" fill="none" xmlns="http://www.w3.org/2000/svg">
<path d="M12.7734 15C9.60333 15 6.78421 16.5306 4.9894 18.906C4.60311 19.4172 4.40997 19.6728 4.41629 20.0183C4.42117 20.2852 4.58877 20.6219 4.79878 20.7867C5.0706 21 5.44728 21 6.20064 21H19.3462C20.0995 21 20.4762 21 20.748 20.7867C20.958 20.6219 21.1257 20.2852 21.1305 20.0183C21.1369 19.6728 20.9437 19.4172 20.5574 18.906C18.7626 16.5306 15.9435 15 12.7734 15Z" stroke="#CBCBCB" stroke-width="2" stroke-linecap="round" stroke-linejoin="round"/>
<path d="M12.7734 12C15.2587 12 17.2734 9.98528 17.2734 7.5C17.2734 5.01472 15.2587 3 12.7734 3C10.2881 3 8.27341 5.01472 8.27341 7.5C8.27341 9.98528 10.2881 12 12.7734 12Z" stroke="#CBCBCB" stroke-width="2" stroke-linecap="round" stroke-linejoin="round"/>
</svg>
