<svg width="25" height="24" viewBox="0 0 25 24" fill="none" xmlns="http://www.w3.org/2000/svg">
<path d="M12.5 22C18.0228 22 22.5 17.5228 22.5 12C22.5 6.47715 18.0228 2 12.5 2C6.97715 2 2.5 6.47715 2.5 12C2.5 17.5228 6.97715 22 12.5 22Z" fill="#435FD0"/>
<path d="M12.5 6V12L16.5 14" fill="#435FD0"/>
<path d="M12.5 6V12L16.5 14M22.5 12C22.5 17.5228 18.0228 22 12.5 22C6.97715 22 2.5 17.5228 2.5 12C2.5 6.47715 6.97715 2 12.5 2C18.0228 2 22.5 6.47715 22.5 12Z" stroke="#435FD0" stroke-width="2" stroke-linecap="round" stroke-linejoin="round"/>
<path d="M12.5 6V12L16.5 14" fill="#435FD0"/>
<path d="M12.5 6V12L16.5 14" stroke="white" stroke-width="2" stroke-linecap="round" stroke-linejoin="round"/>
</svg>
