<svg width="25" height="24" viewBox="0 0 25 24" fill="none" xmlns="http://www.w3.org/2000/svg">
<rect width="24" height="24" transform="translate(0.976562)" fill="white"/>
<path d="M7.45156 14.0433C7.46537 14.0194 7.49595 14.0112 7.51986 14.025L11.7634 16.475C11.7873 16.4888 11.7955 16.5194 11.7817 16.5433L8.36244 22.4656C8.34086 22.503 8.28523 22.4973 8.27167 22.4563L7.26925 19.4256C7.26128 19.4015 7.2365 19.3872 7.21164 19.3923L4.08576 20.0396C4.04348 20.0483 4.01073 20.003 4.03232 19.9656L7.45156 14.0433Z" fill="#435FD0" stroke="#435FD0" stroke-width="2"/>
<path d="M14.3316 16.5433C14.3178 16.5194 14.326 16.4888 14.3499 16.475L18.5935 14.025C18.6174 14.0112 18.648 14.0194 18.6618 14.0433L22.081 19.9656C22.1026 20.003 22.0698 20.0483 22.0276 20.0396L18.9017 19.3923C18.8768 19.3872 18.8521 19.4015 18.8441 19.4256L17.8417 22.4563C17.8281 22.4973 17.7725 22.503 17.7509 22.4656L14.3316 16.5433Z" fill="#435FD0" stroke="#435FD0" stroke-width="2"/>
<circle cx="13.4766" cy="9.5" r="7.5" fill="white" stroke="#435FD0" stroke-width="2"/>
<circle cx="13.4766" cy="9.5" r="3.5" fill="#435FD0" stroke="#435FD0" stroke-width="2"/>
</svg>
