<svg width="25" height="24" viewBox="0 0 25 24" fill="none" xmlns="http://www.w3.org/2000/svg">
<rect width="24" height="24" transform="translate(0.273438)" fill="white"/>
<path d="M6.74844 14.0433C6.76224 14.0194 6.79282 14.0112 6.81674 14.025L11.0603 16.475C11.0842 16.4888 11.0924 16.5194 11.0786 16.5433L7.65932 22.4656C7.63774 22.503 7.5821 22.4973 7.56855 22.4563L6.56613 19.4256C6.55815 19.4015 6.53338 19.3872 6.50852 19.3923L3.38263 20.0396C3.34036 20.0483 3.30761 20.003 3.32919 19.9656L6.74844 14.0433Z" stroke="#CBCBCB" stroke-width="2"/>
<path d="M13.6285 16.5433C13.6147 16.5194 13.6229 16.4888 13.6468 16.475L17.8903 14.025C17.9143 14.0112 17.9448 14.0194 17.9586 14.0433L21.3779 19.9656C21.3995 20.003 21.3667 20.0483 21.3244 20.0396L18.1986 19.3923C18.1737 19.3872 18.1489 19.4015 18.141 19.4256L17.1385 22.4563C17.125 22.4973 17.0693 22.503 17.0478 22.4656L13.6285 16.5433Z" stroke="#CBCBCB" stroke-width="2"/>
<circle cx="12.7734" cy="9.5" r="7.5" fill="white" stroke="#CBCBCB" stroke-width="2"/>
<circle cx="12.7734" cy="9.5" r="3.5" stroke="#CBCBCB" stroke-width="2"/>
</svg>
