<svg width="26" height="33" viewBox="0 0 26 33" fill="none" xmlns="http://www.w3.org/2000/svg">
<path fill-rule="evenodd" clip-rule="evenodd" d="M1.04278 11.7595C1.54396 5.67934 6.62489 1 12.7257 1H13.3366C19.4374 1 24.5184 5.67934 25.0195 11.7595C25.2888 15.0257 24.2799 18.2689 22.2053 20.806L15.4258 29.0972C14.2248 30.6543 11.8375 30.6543 10.6365 29.0972L3.85698 20.806C1.78246 18.2689 0.773559 15.0257 1.04278 11.7595Z" fill="url(#paint0_linear_278_141)" stroke="url(#paint1_linear_278_141)"/>
<path d="M10.2458 15.3066L9.66667 19.6667L12.7256 17.8313C12.8254 17.7714 12.8753 17.7415 12.9285 17.7298C12.9756 17.7195 13.0244 17.7195 13.0715 17.7298C13.1247 17.7415 13.1746 17.7714 13.2744 17.8313L16.3333 19.6667L15.7546 15.3047M15.9506 7.83259C16.0536 8.0816 16.2512 8.27953 16.5 8.38287L17.3726 8.74432C17.6216 8.84748 17.8195 9.04533 17.9226 9.29436C18.0258 9.5434 18.0258 9.82321 17.9226 10.0722L17.5615 10.9442C17.4583 11.1934 17.4581 11.4735 17.5618 11.7225L17.9223 12.5942C17.9735 12.7176 17.9998 12.8498 17.9998 12.9833C17.9998 13.1168 17.9736 13.249 17.9225 13.3724C17.8714 13.4958 17.7965 13.6078 17.702 13.7022C17.6076 13.7966 17.4955 13.8715 17.3721 13.9226L16.5002 14.2838C16.2512 14.3867 16.0532 14.5844 15.9499 14.8332L15.5885 15.7058C15.4853 15.9549 15.2875 16.1527 15.0385 16.2559C14.7894 16.359 14.5096 16.359 14.2606 16.2559L13.3886 15.8947C13.1396 15.7918 12.8599 15.792 12.611 15.8953L11.7384 16.2562C11.4896 16.3591 11.21 16.359 10.9612 16.256C10.7124 16.1529 10.5146 15.9553 10.4114 15.7065L10.0499 14.8336C9.9469 14.5846 9.74927 14.3867 9.50042 14.2833L8.62783 13.9219C8.37892 13.8188 8.18113 13.6211 8.07794 13.3722C7.97475 13.1233 7.97461 12.8436 8.07755 12.5946L8.43873 11.7226C8.54163 11.4736 8.54142 11.1939 8.43815 10.945L8.07749 10.0717C8.02635 9.94838 8.00002 9.81617 8 9.68265C7.99998 9.54913 8.02627 9.41691 8.07736 9.29355C8.12846 9.17019 8.20336 9.05811 8.29778 8.96371C8.39221 8.86931 8.50431 8.79444 8.62768 8.74339L9.49965 8.38219C9.74844 8.27932 9.94624 8.08193 10.0497 7.83336L10.4111 6.96074C10.5142 6.71171 10.7121 6.51385 10.9611 6.4107C11.2101 6.30755 11.4899 6.30755 11.739 6.4107L12.6109 6.77189C12.86 6.87479 13.1397 6.87458 13.3885 6.77131L14.2615 6.41126C14.5105 6.30816 14.7902 6.30818 15.0392 6.41132C15.2882 6.51445 15.486 6.71225 15.5892 6.96122L15.9507 7.8341L15.9506 7.83259Z" stroke="white" stroke-width="1.33333" stroke-linecap="round" stroke-linejoin="round"/>
<circle cx="13" cy="11.5" r="2" fill="white"/>
<defs>
<linearGradient id="paint0_linear_278_141" x1="13.0312" y1="1" x2="13.0312" y2="32.202" gradientUnits="userSpaceOnUse">
<stop stop-color="#798BFF"/>
<stop offset="1" stop-color="#8874FE"/>
</linearGradient>
<linearGradient id="paint1_linear_278_141" x1="13.0312" y1="1" x2="13.0312" y2="32.202" gradientUnits="userSpaceOnUse">
<stop stop-color="white" stop-opacity="0"/>
<stop offset="1" stop-color="white"/>
</linearGradient>
</defs>
</svg>
