<svg width="26" height="32" viewBox="0 0 26 32" fill="none" xmlns="http://www.w3.org/2000/svg">
<path fill-rule="evenodd" clip-rule="evenodd" d="M0.979643 11.5575C1.48082 5.47732 6.56174 0.797976 12.6625 0.797976H13.2735C19.3743 0.797976 24.4552 5.47732 24.9564 11.5575C25.2256 14.8237 24.2167 18.0669 22.1422 20.6039L15.3626 28.8951V28.8951C14.1617 30.4523 11.7743 30.4523 10.5734 28.8951V28.8951L3.79384 20.6039C1.71932 18.0669 0.710418 14.8237 0.979643 11.5575Z" fill="#C6C8D0" stroke="url(#paint0_linear_278_148)" stroke-opacity="0.5"/>
<g clip-path="url(#clip0_278_148)">
<rect width="16" height="16" transform="translate(4.93686 4.79798)" fill="#C6C8D0"/>
<circle cx="12.9369" cy="11.298" r="2" fill="white"/>
<path d="M10.1826 15.1046L9.60353 19.4646L12.6625 17.6293C12.7622 17.5694 12.8121 17.5395 12.8654 17.5278C12.9125 17.5175 12.9613 17.5175 13.0084 17.5278C13.0616 17.5395 13.1115 17.5694 13.2113 17.6293L16.2702 19.4646L15.6915 15.1027M15.8875 7.63056C15.9904 7.87958 16.188 8.07751 16.4369 8.18085L17.3095 8.5423C17.5585 8.64545 17.7563 8.84331 17.8595 9.09234C17.9626 9.34137 17.9626 9.62118 17.8595 9.87021L17.4983 10.7422C17.3951 10.9914 17.395 11.2714 17.4986 11.5205L17.8592 12.3922C17.9103 12.5155 17.9367 12.6478 17.9367 12.7813C17.9367 12.9148 17.9104 13.047 17.8593 13.1704C17.8082 13.2937 17.7333 13.4058 17.6389 13.5002C17.5445 13.5946 17.4324 13.6695 17.309 13.7205L16.437 14.0817C16.188 14.1847 15.9901 14.3823 15.8868 14.6312L15.5253 15.5038C15.4222 15.7529 15.2243 15.9507 14.9753 16.0539C14.7263 16.157 14.4465 16.157 14.1975 16.0539L13.3255 15.6927C13.0765 15.5898 12.7968 15.59 12.5479 15.6933L11.6753 16.0542C11.4264 16.1571 11.1469 16.157 10.898 16.0539C10.6492 15.9509 10.4515 15.7533 10.3483 15.5045L9.98672 14.6316C9.88376 14.3826 9.68613 14.1847 9.43728 14.0813L8.56469 13.7199C8.31578 13.6168 8.11799 13.419 8.0148 13.1701C7.91161 12.9213 7.91147 12.6416 8.01441 12.3926L8.37559 11.5206C8.47849 11.2715 8.47828 10.9918 8.37501 10.743L8.01435 9.8697C7.96321 9.74636 7.93688 9.61415 7.93686 9.48063C7.93684 9.3471 7.96313 9.21488 8.01422 9.09153C8.06532 8.96817 8.14022 8.85608 8.23464 8.76169C8.32907 8.66729 8.44117 8.59242 8.56454 8.54136L9.43651 8.18017C9.68529 8.07729 9.8831 7.87991 9.98651 7.63134L10.348 6.75871C10.4511 6.50968 10.6489 6.31183 10.898 6.20867C11.147 6.10552 11.4268 6.10552 11.6758 6.20867L12.5478 6.56987C12.7968 6.67277 13.0765 6.67255 13.3254 6.56928L14.1983 6.20923C14.4473 6.10614 14.7271 6.10616 14.976 6.20929C15.225 6.31242 15.4228 6.51022 15.526 6.75919L15.8876 7.63207L15.8875 7.63056Z" stroke="white" stroke-width="1.33333" stroke-linecap="round" stroke-linejoin="round"/>
</g>
<defs>
<linearGradient id="paint0_linear_278_148" x1="12.968" y1="0.797976" x2="12.968" y2="32" gradientUnits="userSpaceOnUse">
<stop stop-color="white" stop-opacity="0"/>
<stop offset="1" stop-color="white"/>
</linearGradient>
<clipPath id="clip0_278_148">
<rect width="16" height="16" fill="white" transform="translate(4.93686 4.79798)"/>
</clipPath>
</defs>
</svg>
